<svg width="23" height="22" viewBox="0 0 23 22" fill="none" xmlns="http://www.w3.org/2000/svg">
<path fill-rule="evenodd" clip-rule="evenodd" d="M11.4649 0.112427C5.43875 0.112427 0.549133 5.00204 0.549133 11.0282C0.549133 17.0544 5.43875 21.944 11.4649 21.944C17.4793 21.944 22.3807 17.0544 22.3807 11.0282C22.3807 5.00204 17.4793 0.112427 11.4649 0.112427ZM18.675 5.14411C19.9773 6.73057 20.7588 8.75507 20.7824 10.9453C20.4746 10.8862 17.3964 10.2587 14.2945 10.6494C14.2235 10.4955 14.1643 10.3297 14.0932 10.164C13.9038 9.71409 13.6907 9.25235 13.4776 8.81429C16.9109 7.41727 18.4737 5.40457 18.675 5.14411ZM11.4649 1.72257C13.8328 1.72257 15.9993 2.61051 17.645 4.06674C17.4793 4.30352 16.0704 6.18597 12.7554 7.42908C11.2281 4.62318 9.53515 2.32637 9.27467 1.97119C9.97314 1.80544 10.7072 1.72257 11.4649 1.72257ZM7.49881 2.59867C7.74741 2.93017 9.40491 5.23882 10.9558 7.98551C6.59899 9.14579 2.75124 9.12212 2.33686 9.12212C2.94066 6.23332 4.89414 3.82995 7.49881 2.59867ZM2.13559 11.0401C2.13559 10.9453 2.13559 10.8506 2.13559 10.7559C2.53813 10.7677 7.06072 10.827 11.7135 9.42994C11.9859 9.95083 12.2345 10.4836 12.4713 11.0163C12.3529 11.0519 12.2226 11.0874 12.1042 11.1229C7.29751 12.6738 4.74023 16.9123 4.52712 17.2675C3.04721 15.6219 2.13559 13.4316 2.13559 11.0401ZM11.4649 20.3575C9.31015 20.3575 7.32119 19.6235 5.74656 18.3922C5.91231 18.0489 7.80656 14.4024 13.0632 12.5673C13.0869 12.5555 13.0987 12.5555 13.1224 12.5437C14.4365 15.9415 14.9694 18.7947 15.1114 19.6116C13.9867 20.0971 12.7554 20.3575 11.4649 20.3575ZM16.6623 18.7593C16.5676 18.191 16.0704 15.4679 14.8509 12.1174C17.7753 11.6557 20.3325 12.4134 20.6522 12.52C20.2497 15.1128 18.7579 17.3504 16.6623 18.7593Z" fill="#239B80"/>
</svg>
