<svg width="23" height="22" viewBox="0 0 23 22" fill="none" xmlns="http://www.w3.org/2000/svg">
<path d="M20.7401 0.112427H2.13632C1.24515 0.112427 0.524536 0.815984 0.524536 1.68584V20.3663C0.524536 21.2362 1.24515 21.944 2.13632 21.944H20.7401C21.6312 21.944 22.3561 21.2362 22.3561 20.3706V1.68584C22.3561 0.815984 21.6312 0.112427 20.7401 0.112427ZM7.00152 18.7162H3.7609V8.295H7.00152V18.7162ZM5.38121 6.8751C4.3408 6.8751 3.50079 6.0351 3.50079 4.99895C3.50079 3.9628 4.3408 3.1228 5.38121 3.1228C6.41736 3.1228 7.25736 3.9628 7.25736 4.99895C7.25736 6.03083 6.41736 6.8751 5.38121 6.8751ZM19.1283 18.7162H15.8919V13.6506C15.8919 12.4439 15.8706 10.8875 14.2076 10.8875C12.5234 10.8875 12.2675 12.2051 12.2675 13.5653V18.7162H9.03544V8.295H12.1396V9.71918H12.1823C12.6129 8.90049 13.6704 8.0349 15.2438 8.0349C18.5228 8.0349 19.1283 10.1925 19.1283 12.9982V18.7162V18.7162Z" fill="#239B80"/>
</svg>
