<svg width="23" height="18" viewBox="0 0 23 18" fill="none" xmlns="http://www.w3.org/2000/svg">
<path d="M7.36799 17.8974C15.6043 17.8974 20.1105 11.072 20.1105 5.1549C20.1105 4.96302 20.1062 4.76688 20.0977 4.575C20.9743 3.94107 21.7308 3.15585 22.3316 2.25625C21.5152 2.61947 20.6484 2.85669 19.7608 2.95981C20.6954 2.39962 21.3951 1.51959 21.7304 0.482859C20.8512 1.0039 19.8897 1.37144 18.8871 1.56975C18.2116 0.851989 17.3185 0.376748 16.3458 0.2175C15.3731 0.0582515 14.3751 0.223867 13.5059 0.688739C12.6368 1.15361 11.945 1.89185 11.5375 2.78931C11.1301 3.68678 11.0296 4.69349 11.2516 5.65379C9.47141 5.56445 7.72983 5.102 6.13981 4.29641C4.54978 3.49082 3.1468 2.36007 2.02181 0.97748C1.45004 1.96329 1.27507 3.12983 1.53248 4.24C1.78989 5.35018 2.46035 6.3207 3.40761 6.9543C2.69646 6.93172 2.0009 6.74026 1.37838 6.39572V6.45115C1.37774 7.48569 1.73539 8.48852 2.39053 9.28918C3.04567 10.0898 3.95787 10.6389 4.97206 10.8431C4.3133 11.0233 3.6219 11.0496 2.95136 10.9198C3.23755 11.8095 3.79436 12.5877 4.54409 13.1457C5.29382 13.7037 6.19906 14.0137 7.13347 14.0325C5.54712 15.2786 3.58751 15.9545 1.57026 15.9513C1.21252 15.9508 0.855126 15.9288 0.5 15.8856C2.54931 17.2004 4.9332 17.8987 7.36799 17.8974Z" fill="#239B80"/>
</svg>
